<?xml version="1.0" encoding="utf-8"?>
<!-- Generator: Adobe Illustrator 26.0.0, SVG Export Plug-In . SVG Version: 6.00 Build 0)  -->
<svg version="1.1" id="Calque_1" xmlns="http://www.w3.org/2000/svg" xmlns:xlink="http://www.w3.org/1999/xlink" x="0px" y="0px"
	 viewBox="0 0 127 132" style="enable-background:new 0 0 127 132;" xml:space="preserve">
<style type="text/css">
	.st0{fill:#FFFFFF;}
	.st1{fill:#ED6E52;}
</style>
<g>
	<path class="st0" d="M63.5,5.4C28.5,5.4,5,17.1,5,28s23.5,22.7,58.5,22.7c31.7,0,54-9.6,57.8-19.6c0.4-1,0.6-2.1,0.6-3.1
		C122,17.1,98.5,5.4,63.5,5.4z M63.3,37.2c-15.2,0-27.5-4.1-27.5-9.1s12.3-9.1,27.5-9.1S90.8,23,90.8,28
		C90.8,33.1,78.5,37.2,63.3,37.2z"/>
	<path class="st0" d="M92,72.1c-12.1-3.5-21-8.2-28.6-15.2C56,63.9,47,68.6,34.9,72.1c-8,2.3-16.9,3.6-25,3.6l0,0
		c-1.7,0-3.3-0.1-4.9-0.2v29.1c0,10.9,23.5,22.7,58.5,22.7s58.5-11.7,58.5-22.7V75.5c-1.6,0.1-3.2,0.2-4.9,0.2
		C108.9,75.6,100.1,74.4,92,72.1z M24.8,109.6c-4.6,0-8.3-3.8-8.3-8.4s3.7-8.4,8.3-8.4c4.6,0,8.3,3.8,8.3,8.4
		C33.1,105.8,29.4,109.6,24.8,109.6z M50.4,97.3C43.6,83,25.2,84.8,25,84.8c-1.4,0.2-2.6-0.9-2.8-2.2c-0.1-1.4,0.9-2.7,2.2-2.8
		c0.9-0.1,22.1-2.2,30.4,15.4c0.6,1.3,0.1,2.8-1.2,3.4c-0.3,0.2-0.7,0.2-1.1,0.2C51.7,98.8,50.8,98.2,50.4,97.3z M63.3,120.8
		c-6,0-10.8-4.9-10.8-10.9c0-1.4,1.1-2.5,2.5-2.5s2.5,1.1,2.5,2.5c0,3.2,2.6,5.8,5.8,5.8c3.2,0,5.8-2.6,5.8-5.8
		c0-1.4,1.1-2.5,2.5-2.5s2.5,1.1,2.5,2.5C74.2,115.9,69.3,120.8,63.3,120.8z M76.5,97.3c-0.4,0.9-1.3,1.4-2.3,1.4
		c-0.4,0-0.7-0.1-1.1-0.2c-1.3-0.6-1.8-2.1-1.2-3.4c8.3-17.6,29.5-15.5,30.4-15.4c1.4,0.2,2.4,1.4,2.2,2.8c-0.2,1.4-1.4,2.4-2.8,2.2
		C101,84.7,83.2,83,76.5,97.3z M102,109.6c-4.6,0-8.3-3.8-8.3-8.4s3.7-8.4,8.3-8.4c4.6,0,8.3,3.8,8.3,8.4S106.6,109.6,102,109.6z"/>
	<path d="M63.5,0.3C27.9,0.3,0,12.5,0,28V75v29.6c0,15.6,27.9,27.7,63.5,27.7s63.5-12.2,63.5-27.7V75V28C127,12.5,99.1,0.3,63.5,0.3
		z M122,104.6c0,10.9-23.5,22.7-58.5,22.7S5,115.5,5,104.6V75.5c1.6,0.1,3.2,0.2,4.9,0.2l0,0c8.1,0,17-1.3,25-3.6
		c12.1-3.5,21-8.2,28.5-15.2c7.5,7,16.4,11.7,28.6,15.2c8,2.3,16.9,3.6,25,3.6c1.7,0,3.3-0.1,4.9-0.2C122,75.5,122,104.6,122,104.6z
		 M121.3,31.1c-3.9,10-26.2,19.6-57.8,19.6C28.5,50.7,5,39,5,28S28.5,5.4,63.5,5.4S122,17.1,122,28C122,29,121.8,30.1,121.3,31.1z"
		/>
	<path d="M53.7,98.5c1.3-0.6,1.8-2.1,1.2-3.4c-8.3-17.6-29.5-15.5-30.4-15.4c-1.4,0.2-2.4,1.4-2.2,2.8c0.1,1.4,1.4,2.4,2.8,2.2
		c0.2,0,18.6-1.8,25.3,12.5c0.4,0.9,1.3,1.4,2.3,1.4C53,98.8,53.4,98.7,53.7,98.5z"/>
	<path class="st1" d="M24.8,92.8c-4.6,0-8.3,3.8-8.3,8.4s3.7,8.4,8.3,8.4c4.6,0,8.3-3.8,8.3-8.4C33.1,96.6,29.4,92.8,24.8,92.8z"/>
	<path d="M71.7,107.4c-1.4,0-2.5,1.1-2.5,2.5c0,3.2-2.6,5.8-5.8,5.8c-3.2,0-5.8-2.6-5.8-5.8c0-1.4-1.1-2.5-2.5-2.5s-2.5,1.1-2.5,2.5
		c0,6,4.9,10.9,10.8,10.9s10.8-4.9,10.8-10.9C74.2,108.5,73,107.4,71.7,107.4z"/>
	<path d="M101.8,84.8c1.4,0.2,2.6-0.9,2.8-2.2c0.2-1.4-0.8-2.7-2.2-2.8c-0.9-0.1-22.1-2.2-30.4,15.4c-0.6,1.3-0.1,2.8,1.2,3.4
		c0.3,0.2,0.7,0.2,1.1,0.2c0.9,0,1.8-0.5,2.3-1.4C83.2,83,101,84.7,101.8,84.8z"/>
	<path class="st1" d="M102,92.8c-4.6,0-8.3,3.8-8.3,8.4s3.7,8.4,8.3,8.4c4.6,0,8.3-3.8,8.3-8.4S106.6,92.8,102,92.8z"/>
	<path class="st1" d="M63.3,18.9c-15.2,0-27.5,4.1-27.5,9.1s12.3,9.1,27.5,9.1s27.4-4.1,27.4-9.1C90.8,23,78.5,18.9,63.3,18.9z"/>
</g>
</svg>
